# xmcd CD database file
#
# Track frame offsets:
#	150
#	13597
#	28177
#	42095
#	56110
#	71510
#	87390
#	101392
#	115940
#	131472
#	142765
#	155215
#	169110
#	184087
#	196887
#	210700
#	223872
#	237065
#	250625
#	262555
#	276895
#	290290
#	304020
#
# Disc length: 4257 seconds
#
# Revision: 0
# Processed by: cddbd v1.5PL3 Copyright (c) Steve Scherf et al.
# Submitted via: CDex 1.50
#
DISCID=42109f17
DTITLE=Various Artist - Jazz In Saint Louis 1924-1927
DYEAR=1900
DGENRE=Jazz
TTITLE0=Pleasure Mad - Bechet
TTITLE1=Market Street Blues - Creath
TTITLE2=I Woke Up Cold In Hand - Creath
TTITLE3=King Porter Stomp - Morton
TTITLE4=Every Man That Wears Bell-Bottom Britches Ain't No Monkey Man - Campell
TTITLE5=My Daddy Rocks Me - Barbour
TTITLE6=If I Had You And You Had Me - Baxter
TTITLE7=Waiting - Baxter
TTITLE8=Something Tells Me - Baxter
TTITLE9=What-Cha-Call-'em Blues - Roberts
TTITLE10=Market Street Stomp - Creath, Eubanks
TTITLE11=Won't Don't Blues - Creath
TTITLE12=Way Down In Lover's Lane - (Unknown)
TTITLE13=Grandpa's Spell(s) - Morton
TTITLE14=Compton Avenue Blues - Johnson
TTITLE15=Soap Suds - Martin
TTITLE16=She's Crying For Me - Pecora
TTITLE17=Capitol Blues - Jackson
TTITLE18=Going To Town - Jackson
TTITLE19=Starvation Blues - Stone
TTITLE20=Boot To Boot - Stone
TTITLE21=Butter Finger Blues - Creath
TTITLE22=Crasy Quilt - VanLoan
EXTD=
EXTT0=
EXTT1=
EXTT2=
EXTT3=
EXTT4=
EXTT5=
EXTT6=
EXTT7=
EXTT8=
EXTT9=
EXTT10=
EXTT11=
EXTT12=
EXTT13=
EXTT14=
EXTT15=
EXTT16=
EXTT17=
EXTT18=
EXTT19=
EXTT20=
EXTT21=
EXTT22=
PLAYORDER=
